<svg xmlns="http://www.w3.org/2000/svg" width="4.234in" height="4.505in" viewBox="0 0 304.821 324.352">
  <title>patch</title>
  <path d="M299.46,245.516l-35.825-32.353A134.184,134.184,0,0,0,152.449,4h-0.078A134.184,134.184,0,0,0,41.185,213.164L5.361,245.516A182.415,182.415,0,0,0,152.007,320.34v0.012c0.135,0,.268-0.006.4-0.006s0.268,0.006.4,0.006V320.34A182.415,182.415,0,0,0,299.46,245.516Z" style="fill: #fff;stroke: #808285;stroke-miterlimit: 10;stroke-width: 8px"/>
  <g>
    <polyline points="170.783 78.904 170.783 109.146 195.533 94.857 211.892 123.19 184.718 138.879 210.892 153.991 194.533 182.324 170.783 168.612 170.783 197.467 170.774 197.467 133.128 197.467 133.119 197.467 133.119 168.612 109.368 182.324 93.01 153.991 119.184 138.879 92.01 123.19 108.368 94.857 133.119 109.146 133.119 78.904 133.128 78.904 170.774 78.904 170.783 78.904" style="fill: #fff;stroke: #231f20;stroke-miterlimit: 10;stroke-width: 2px"/>
    <g>
      <polygon points="127.619 202.967 127.619 178.139 107.355 189.838 85.497 151.977 108.184 138.879 84.497 125.204 106.355 87.343 127.619 99.62 127.619 78.904 127.63 73.404 176.283 73.404 176.283 99.62 197.547 87.343 219.405 125.204 195.718 138.879 218.405 151.977 196.547 189.838 176.283 178.139 176.283 197.467 176.272 202.967 127.619 202.967" style="fill: #fff"/>
      <path d="M175.283,74.4v26.948l18-10.392,3.9-2.25,2.25,3.9,16.358,28.334,2.25,3.9-3.9,2.25-20.424,11.792,19.424,11.215,3.9,2.25-2.25,3.9L198.43,184.574l-2.25,3.9-3.9-2.25-17-9.815v21.061l-0.009,4.5H128.619V176.406l-17,9.815-3.9,2.25-2.25-3.9L89.113,156.241l-2.25-3.9,3.9-2.25,19.424-11.215L89.76,127.087l-3.9-2.25,2.25-3.9,16.358-28.334,2.25-3.9,3.9,2.25,18,10.392V78.9l0.009-4.5h46.655m2-2H126.632l0,2-0.009,4.5V97.888l-15-8.66-3.9-2.25-1.732-1-1,1.732-2.25,3.9L86.381,119.94l-2.25,3.9-1,1.732,1.732,1,3.9,2.25,17.424,10.06L89.76,148.361l-3.9,2.25-1.732,1,1,1.732,2.25,3.9,16.358,28.333,2.25,3.9,1,1.732,1.732-1,3.9-2.25,14-8.083v24.1H177.27l0-2,0.009-4.5v-17.6l14,8.083,3.9,2.25,1.732,1,1-1.732,2.25-3.9,16.358-28.333,2.25-3.9,1-1.732-1.732-1-3.9-2.25-16.424-9.482,17.424-10.06,3.9-2.25,1.732-1-1-1.732-2.25-3.9L201.163,91.607l-2.25-3.9-1-1.732-1.732,1-3.9,2.25-15,8.66V72.4h0Z" style="fill: #231f20"/>
    </g>
  </g>
  <path d="M211.892,123.19L195.533,94.857l-24.75,14.29V78.9H133.119v30.242l-24.75-14.29L92.01,123.19l27.174,15.689L93.01,153.991l16.358,28.333,23.75-13.712v28.855h37.664V168.612l23.75,13.712,16.358-28.333-26.174-15.112Z" style="fill: #206fb7"/>
  <g>
    <path d="M110.623,265.685" style="fill: none;stroke: #8bc63f;stroke-miterlimit: 10;stroke-width: 8px"/>
    <path d="M41.185,213.164" style="fill: none;stroke: #8bc63f;stroke-miterlimit: 10;stroke-width: 8px"/>
    <path d="M232.106,30.2" style="fill: none;stroke: #8bc63f;stroke-miterlimit: 10;stroke-width: 8px"/>
    <circle cx="152.41" cy="138.185" r="92.555" style="fill: none;stroke: #e21f26;stroke-miterlimit: 10;stroke-width: 39px"/>
    <circle cx="152.41" cy="138.185" r="121.782" style="fill: none;stroke: #c7c8ca;stroke-miterlimit: 10;stroke-width: 5px"/>
  </g>
  <g>
    <g>
      <polyline points="120.795 215.602 132.086 215.602 132.086 222.102 139.086 227.227 139.086 228.852 116.175 228.852 120.795 225.215 120.795 215.602" style="fill: #58595b"/>
      <path d="M139.586,229.352H115.744l0.085-1.279,4.466-3.119V215.1h12.292v6.746l7,5.125v2.379Zm-22.411-1h21.411v-0.871l-7-5.125V216.1H121.294v9.373Z" style="fill: #414042"/>
    </g>
    <path d="M31.628,244.194s17.292-35.963,89.417-34.838V225.09s-57.75-4.833-77.833,30.417Z" style="fill: #6d6e71;stroke: #414042;stroke-miterlimit: 10"/>
    <g>
      <path d="M34.47,246.97l-8.342,10.787,7.958,0.417,2.875,11.667s7.792-13.25,9.833-13.958l-3.25.125Z" style="fill: #58595b"/>
      <path d="M36.77,271.152l-3.08-12.5-8.542-.447,9.272-11.99,9.322,9.283,4.462-.172-1.246,1.027c-1.049.784-6.59,8.678-9.566,13.739Zm-9.663-13.845,7.375,0.387,2.672,10.84c1.749-2.928,5.786-9.516,8.2-12.1l-2.006.077-8.828-8.791Z" style="fill: #414042"/>
    </g>
    <polyline points="120.795 225.215 115.586 228.852 115.586 225.005 120.795 225.215" style="fill: #6d6e71"/>
    <path d="M115.086,229.42v-4.936l6.017,0.243,0.446,0.88-5.094,3.745Zm1-3.895v2.368l3.205-2.239Z" style="fill: #414042"/>
    <g>
      <polygon points="139.086 227.227 139.086 222.227 132.257 222.227 139.086 227.227" style="fill: #6d6e71"/>
      <path d="M139.586,228.213l-7.787-5.465,0.125-1.021h7.662v6.485Zm-5.8-5.485,4.8,3.515v-3.515h-4.8Z" style="fill: #414042"/>
    </g>
    <g>
      <polyline points="184.086 215.602 172.795 215.602 172.795 222.102 165.795 227.227 165.795 228.852 188.706 228.852 184.086 225.215 184.086 215.602" style="fill: #58595b"/>
      <path d="M165.294,226.974l7-5.125V215.1h12.292v9.852l4.466,3.119,0.085,1.279H165.294v-2.379Zm18.292-1.5V216.1H173.294v6.254l-7,5.125v0.871h21.411Z" style="fill: #414042"/>
    </g>
    <path d="M273.253,244.194s-17.292-35.963-89.417-34.838V225.09s57.75-4.833,77.833,30.417Z" style="fill: #6d6e71;stroke: #414042;stroke-miterlimit: 10"/>
    <g>
      <path d="M270.411,246.97l8.342,10.787-7.958.417L267.92,269.84s-7.792-13.25-9.833-13.958l3.25,0.125Z" style="fill: #58595b"/>
      <path d="M267.488,270.094c-2.976-5.062-8.517-12.955-9.566-13.739l-1.246-1.027,4.462,0.172,9.322-9.283,9.272,11.99-8.542.447-3.08,12.5Zm2.874-22.37-8.828,8.791-2.006-.077c2.412,2.581,6.449,9.169,8.2,12.1l2.672-10.84,7.375-.387Z" style="fill: #414042"/>
    </g>
    <g>
      <polyline points="184.086 225.215 189.295 228.852 189.295 225.005 184.086 225.215" style="fill: #6d6e71"/>
      <path d="M188.425,229.352l-5.094-3.745,0.446-.88,6.017-.243v4.936Zm-2.835-3.7,3.205,2.239v-2.368Z" style="fill: #414042"/>
    </g>
    <g>
      <polygon points="165.795 227.227 165.795 222.227 172.624 222.227 165.795 227.227" style="fill: #6d6e71"/>
      <path d="M165.294,221.727h7.662l0.125,1.021-7.787,5.465v-6.485Zm1,1v3.515l4.8-3.515h-4.8Z" style="fill: #414042"/>
    </g>
    <rect x="131.628" y="206.227" width="41.625" height="16" style="fill: #6d6e71;stroke: #414042;stroke-miterlimit: 10"/>
  </g>
  <g>
    <path d="M80.873,194.517l8-5.955,2.151,2.89L72.449,205.277l-4.072-5.468c-1.859-2.5-2.232-5.168,1.186-7.713,2.03-1.513,4.483-2.664,6.25-.964l0.05-.037c-1-1.916-.074-3.408,1.708-4.735,0.768-.572,5.386-3.882,5.408-4.989l0.347-.258,2.366,3.178a27.865,27.865,0,0,1-4.475,3.813c-1.124.868-2.7,2.01-2.308,3.258a9.275,9.275,0,0,0,1.58,2.64Zm-2.724,2.028-1.69-2.271c-0.781-.893-2.077-1.083-3.935.3-2.08,1.55-1.889,2.53-1.1,3.642l1.6,2.146Z" style="fill: #fff"/>
    <path d="M82.733,179.884L62.214,190.6l-4.692-8.988,3.01-1.571,3.025,5.794,5.171-2.7-2.787-5.338,3.009-1.571,2.787,5.338,6.32-3.3-3.025-5.794,3.01-1.57Z" style="fill: #fff"/>
    <path d="M52.765,168.822l-1.141-3.417,21.964-7.32,1.189,3.562-6.931,5.265a88.563,88.563,0,0,1-7.912,5.35l0.016,0.049c1.775-.728,3.952-1.615,6.145-2.454,2.164-.83,4.336-1.636,6.093-2.222l4.129-1.377,1.141,3.417L55.495,177l-1.182-3.538,7.107-5.324a88.655,88.655,0,0,1,7.912-5.35l-0.016-.049c-1.952.786-4.048,1.621-6.124,2.421s-4.161,1.577-6.123,2.23Z" style="fill: #fff"/>
    <path d="M56.131,151.458c-2.046.3-4.035,0.766-3.727,2.722,0.189,1.2.888,1.865,2.444,1.621,1.739-.274,2.265-1.294,2.942-2.547a34.255,34.255,0,0,1,3.07-4.909,6.707,6.707,0,0,1,4.535-2.354c4.331-.682,6.964,1.351,7.513,4.831,0.673,4.268-1.952,6.244-6.039,6.887l-1.677.265-0.561-3.557,1.342-.211c2.238-.275,3.766-1.088,3.489-2.842-0.236-1.5-1.293-2.061-3.032-1.788a3.7,3.7,0,0,0-2.8,1.9c-1.445,2.128-2.331,4.638-4.39,6.445a7.363,7.363,0,0,1-3.362,1.467c-3.9.616-6.327-.878-6.921-4.639-0.893-5.666,4.376-6.339,6.628-6.719Z" style="fill: #fff"/>
    <path d="M55.257,135.969c-2.068-.032-4.105.116-4.111,2.1,0,1.209.582,1.982,2.156,1.988,1.759,0,2.44-.919,3.308-2.048a34.129,34.129,0,0,1,3.809-4.362,6.707,6.707,0,0,1,4.851-1.606c4.383,0.013,6.66,2.437,6.65,5.962-0.012,4.322-2.918,5.856-7.054,5.844l-1.7-.005,0.01-3.6,1.358,0c2.253,0.083,3.891-.478,3.9-2.252,0-1.518-.951-2.241-2.71-2.246a3.7,3.7,0,0,0-3.06,1.431c-1.765,1.874-3.037,4.21-5.355,5.67a7.37,7.37,0,0,1-3.553.915c-3.951-.012-6.106-1.87-6.1-5.678,0.016-5.736,5.324-5.566,7.608-5.585Z" style="fill: #fff"/>
    <path d="M71.577,130.625l-22.89-3.5,1.529-10.02,3.358,0.514-0.986,6.458,5.769,0.883,0.908-5.952,3.357,0.513-0.908,5.951,7.051,1.079,0.985-6.46,3.357,0.513Z" style="fill: #fff"/>
    <path d="M73.471,119.215L51.3,112.536l1.04-3.448,18.922,5.7,1.93-6.4,3.252,0.979Z" style="fill: #fff"/>
    <path d="M76.516,108.876L57.724,94.592l2.131-4.371,22.727,6.213L80.891,99.9,75.2,98.189l-1.85,3.792,4.854,3.426Zm-5.968-8.891L71.9,97.21l-6.338-2c-1.05-.312-2.027-0.7-3.043-1.083-0.483-.207-0.978-0.391-1.445-0.561l-0.022.046c0.422,0.263.87,0.539,1.331,0.792,0.926,0.565,1.836,1.1,2.728,1.731Z" style="fill: #fff"/>
    <path d="M83.191,95.723l-18.97-13.27,5.808-8.309,2.783,1.946-3.745,5.356,4.781,3.345,3.45-4.936L80.08,81.8l-3.45,4.936,5.843,4.086,3.745-5.357L89,87.413Z" style="fill: #fff"/>
    <path d="M85.136,76.827L92.3,83.758l-2.5,2.589L73.156,70.254l4.739-4.9c2.164-2.238,4.742-3.039,7.8-.078,1.819,1.76,3.353,3.994,1.96,6.012L87.7,71.329c1.729-1.3,3.353-.625,4.95.92,0.688,0.665,4.7,4.687,5.8,4.53l0.311,0.3-2.754,2.849a27.845,27.845,0,0,1-4.485-3.8c-1.039-.969-2.419-2.339-3.588-1.752a9.313,9.313,0,0,0-2.351,1.986Zm-2.441-2.359,1.967-2.036c0.757-.915.735-2.225-0.93-3.833-1.864-1.8-2.8-1.456-3.771-.5L78.1,70.025Z" style="fill: #fff"/>
    <path d="M104.124,72.875L91.609,53.4,97.8,49.422c2.9-1.863,5.588.371,7.34,3.1,1.068,1.661,1.9,3.767,1.456,5.595a5.57,5.57,0,0,1-2.646,3.353l-2.034,1.307,5.239,8.154Zm-4.045-12.957,1.622-1.043c1.319-.849,1.773-2.094.254-4.457-1.435-2.233-2.387-2.1-4.1-1l-1.385.89Z" style="fill: #fff"/>
    <path d="M109.744,53.646c-2.159-5.49-3.513-9.677,1.793-11.925s7.374,1.639,9.816,7.008l1.289,3.041c2.409,5.686,3.813,9.986-1.636,12.294s-7.563-1.692-9.972-7.377Zm5.543,3.586c0.747,1.762,2.082,4.583,4.356,3.62,2.37-1,1.152-3.942.285-5.988l-2.312-5.458c-0.723-1.7-2.254-5.516-4.718-4.473-2.606,1.1-.815,4.737-0.116,6.386Z" style="fill: #fff"/>
    <path d="M128.264,60.67L122.689,38.2l3.495-.868,4.758,19.174,6.49-1.61,0.818,3.3Z" style="fill: #fff"/>
    <path d="M140.376,40.816a18.059,18.059,0,0,1,1.244,3.433l0.052-.005a22.69,22.69,0,0,1,.68-4.49l1.121-5.408,3.911-.443L143.824,47.7l1.111,9.784-3.578.406L140.245,48.1l-6.486-12.654L137.67,35Z" style="fill: #fff"/>
    <path d="M151.411,33.83l12,0.578L163.252,37.8l-4.189-.2-0.951,19.74-3.6-.173,0.951-19.74-4.216-.2Z" style="fill: #fff"/>
    <path d="M163.347,57.757L167.8,35.041l9.945,1.951-0.653,3.331-6.412-1.257-1.122,5.725,5.907,1.16-0.654,3.331-5.906-1.159-1.372,7,6.412,1.258-0.654,3.332Z" style="fill: #fff"/>
    <path d="M188.122,56.136c-0.169.4-.349,0.826-0.518,1.224-1.59,3.923-3.794,6.578-7.574,5.229-5.572-1.988-4.422-6.363-2.349-12.178l1.109-3.11c2.126-5.5,3.962-9.5,9.39-7.564,3.008,1.139,4.04,3.6,2.955,7.413a13.386,13.386,0,0,1-.518,1.683l-3.345-1.193c0.353-1.447,1.407-4.021-.265-4.617-2.665-.952-3.806,2.936-4.407,4.622l-2.156,6.048c-0.643,1.8-1.569,4.781.757,5.612,1.866,0.666,2.934-3.018,3.5-4.387Z" style="fill: #fff"/>
    <path d="M186.6,64.451l11.3-20.213L201.039,46l-4.474,8,4.4,2.459,4.473-8,3.146,1.757-11.3,20.212-3.146-1.757,5.167-9.243-4.4-2.46-5.166,9.245Z" style="fill: #fff"/>
    <path d="M220.1,58.944l2.793,2.276L208.259,79.168l-2.913-2.374,3.036-8.162a88.779,88.779,0,0,1,3.818-8.756l-0.039-.033c-1.11,1.564-2.474,3.481-3.877,5.364-1.384,1.86-2.787,3.7-3.957,5.14l-2.751,3.375-2.793-2.276L213.416,53.5l2.893,2.357-3.151,8.305a88.821,88.821,0,0,1-3.82,8.758l0.04,0.032c1.228-1.708,2.552-3.536,3.877-5.325s2.67-3.559,3.978-5.163Z" style="fill: #fff"/>
    <path d="M209.612,80.78l16.716-16.02,2.491,2.6L212.1,83.38Z" style="fill: #fff"/>
    <path d="M227.164,89.026l-1.1.743c-3.478,2.415-6.774,3.436-9.2.241-3.579-4.712-.223-7.746,4.693-11.483l2.631-2c4.789-3.445,8.514-5.792,12-1.2,1.895,2.6,1.411,5.227-1.581,7.823a13.391,13.391,0,0,1-1.354,1.126L231.1,81.447c1.087-1.019,3.377-2.6,2.3-4.012-1.712-2.252-4.793.378-6.218,1.463l-5.113,3.886c-1.524,1.159-3.931,3.148-2.437,5.114,1.2,1.578,4.106-.923,5.333-1.759Z" style="fill: #fff"/>
    <path d="M224.018,100.21L244.707,89.8l1.617,3.217-20.689,10.406Z" style="fill: #fff"/>
    <path d="M251.4,105.573l1.209,3.393-21.811,7.767-1.26-3.537,6.823-5.407a89.214,89.214,0,0,1,7.8-5.51l-0.018-.048c-1.76.763-3.918,1.7-6.094,2.579-2.146.875-4.3,1.724-6.046,2.345l-4.1,1.46-1.208-3.393,21.81-7.768,1.252,3.513-7,5.468a88.52,88.52,0,0,1-7.8,5.51L234.974,112c1.934-.826,4.013-1.7,6.073-2.545s4.126-1.661,6.075-2.354Z" style="fill: #fff"/>
    <path d="M248.378,123.03c2.04-.337,4.019-0.845,3.672-2.8-0.212-1.19-.925-1.847-2.475-1.572-1.731.309-2.238,1.339-2.891,2.6a34.168,34.168,0,0,1-2.971,4.97,6.709,6.709,0,0,1-4.487,2.443c-4.315.767-6.987-1.213-7.605-4.683-0.757-4.255,1.828-6.282,5.9-7.006l1.671-.3,0.632,3.546-1.337.238c-2.232.319-3.743,1.162-3.433,2.909,0.267,1.495,1.335,2.036,3.066,1.728a3.694,3.694,0,0,0,2.756-1.952c1.4-2.157,2.238-4.683,4.261-6.532a7.363,7.363,0,0,1,3.332-1.533c3.89-.691,6.342.754,7.009,4.5,1.006,5.647-4.248,6.424-6.491,6.85Z" style="fill: #fff"/>
    <path d="M256.407,129.63l0.29,12.011-3.4.082-0.1-4.192-19.757.48-0.087-3.6,19.757-.48-0.1-4.218Z" style="fill: #fff"/>
    <path d="M233.271,143.5l23.06,2.026-0.314,3.587-23.06-2.026Z" style="fill: #fff"/>
    <path d="M255.707,152.952l-2.372,11.775-3.33-.672,0.828-4.109-19.372-3.9,0.711-3.53,19.372,3.9,0.833-4.135Z" style="fill: #fff"/>
    <path d="M248.97,177.392l-1.271,3.37-15.106-5.7C227.8,173.26,226,171.1,227.667,166.7c1.68-4.452,4.451-4.892,9.246-3.084l15.107,5.694-1.271,3.369-14.76-5.563c-2.08-.784-4.205-1.448-5.067.839-0.826,2.19,1.208,3.094,3.288,3.879Z" style="fill: #fff"/>
    <path d="M245.646,185.083l-6.007,10.4-2.94-1.7,2.1-3.631-17.11-9.881,1.8-3.118,17.11,9.881,2.109-3.652Z" style="fill: #fff"/>
    <path d="M218.926,184.721l18.14,14.384-6.3,7.942-2.661-2.11,4.061-5.12-4.57-3.625-3.741,4.717-2.66-2.108,3.741-4.717-5.588-4.432-4.061,5.121-2.661-2.111Z" style="fill: #fff"/>
  </g>
  <g>
    <path d="M42.935,271.051l28.2-26.275,6.439,4.641L61.266,284.26l-5.111-3.683,4.338-8.679L54.9,267.872l-6.859,6.861Zm15.96-7.137,4.089,2.946,4.981-9.644c0.792-1.6,1.692-3.066,2.587-4.6,0.467-.72.9-1.464,1.3-2.167l-0.068-.049c-0.54.6-1.108,1.251-1.644,1.922-1.167,1.333-2.271,2.649-3.542,3.909Z" style="fill: #231f20"/>
    <path d="M72.373,290.415l-5.319-2.506,16.113-34.2,8.473,3.992-4.627,17.208c-0.769,2.814-1.711,5.6-2.729,8.354l0.076,0.036c1.856-3.249,3.12-5.439,4.553-7.494l10.326-14.524,8.435,3.974-16.113,34.2-5.319-2.506,5.07-10.761c3.2-6.793,6.516-13.532,10.059-20.165l-0.076-.036L80.921,294.442l-3.229-1.521,9.088-33.771-0.19-.09c-2.859,6.955-5.946,13.8-9.147,20.6Z" style="fill: #231f20"/>
    <path d="M99.486,301.908l9.716-36.529,9.173,2.441c2.435,0.648,4.778,1.48,5.741,4.4,0.768,2.343.414,4.491-.247,6.975-0.842,3.166-2.239,6.132-5.687,6.675l-0.026.1c3.064,1.39,3.426,4.928,2.17,9.652a21.386,21.386,0,0,1-1.6,4.373c-2.448,4.3-5.158,5.668-9.217,4.587Zm8.325-3.521a7.478,7.478,0,0,0,3.513.519c1.762-.418,2.6-2.75,3.092-4.6,1.049-3.944.84-5.773-2.691-6.714l-2.191-.583-2.941,11.057Zm4.2-16.457c1.38,0.367,3.14.94,4.4-.186a8.464,8.464,0,0,0,1.658-3.783c0.725-2.728.6-4.221-1.971-5.01l-2.638-.7-2.5,9.4Z" style="fill: #231f20"/>
    <path d="M142.276,271.852l5.847,0.615-2.761,26.216c-0.876,8.32-3.548,12.043-11.191,11.238-7.726-.812-9.564-5.01-8.687-13.33l2.761-26.216,5.847,0.615-2.7,25.614c-0.38,3.608-.552,7.239,3.416,7.657,3.8,0.4,4.389-3.187,4.77-6.8Z" style="fill: #231f20"/>
    <path d="M151.618,310.133l-1.476-37.766,5.874-.23,1.26,32.227,10.91-.429,0.217,5.539Z" style="fill: #231f20"/>
    <path d="M173.749,309.031l0.29-38.536,7.8-1.491,14.109,35.783-6.189,1.184-3.324-9.113-6.767,1.294,0.271,9.7Zm5.785-16.5,4.951-.947L180.9,281.343c-0.62-1.678-1.065-3.337-1.562-5.038-0.2-.833-0.445-1.659-0.679-2.436l-0.083.017c0.069,0.808.147,1.665,0.267,2.514,0.166,1.765.364,3.471,0.406,5.259Z" style="fill: #231f20"/>
    <path d="M202.28,262.662l5.522-2.019,12.978,35.5-5.759,2.105L206.1,287.182a145.316,145.316,0,0,1-9.1-12.663l-0.078.029c1.27,2.862,2.821,6.373,4.294,9.913,1.456,3.492,2.872,7,3.91,9.839l2.439,6.674-5.521,2.019-12.978-35.5,5.719-2.091,9.023,11.351a144.884,144.884,0,0,1,9.1,12.663l0.079-.029c-1.374-3.146-2.834-6.529-4.238-9.88s-2.768-6.715-3.927-9.886Z" style="fill: #231f20"/>
    <path d="M237.7,271.969c0.3,0.637.635,1.318,0.94,1.956,3.092,6.18,3.969,11.743-1.761,14.921-8.447,4.686-12.566-1.442-17.456-10.256l-2.615-4.716c-4.448-8.539-7.369-15.1.858-19.665,4.64-2.458,8.775-1.063,12.271,4.373a21.942,21.942,0,0,1,1.5,2.451l-5.068,2.811c-1.394-1.992-3.41-6.061-5.944-4.655-4.04,2.241-.507,7.83.911,10.387l5.084,9.166c1.516,2.731,4.168,7.081,7.694,5.125,2.828-1.568-.534-6.85-1.6-9.025Z" style="fill: #231f20"/>
    <path d="M249.573,280.082L226.8,249.915l13.208-9.968,3.34,4.425-8.515,6.426,5.739,7.6,7.844-5.92,3.341,4.424-7.845,5.92,7.015,9.291,8.515-6.426,3.34,4.425Z" style="fill: #231f20"/>
  </g>
  <g>
    <g>
      <path d="M53.4,239.115L47.9,232l1.109-.856,2.444,3.16,0.016-.012a19.722,19.722,0,0,1-.624-2.247l-0.474-1.954,1.251-.967,0.9,4.188,4.678,2.875-1.251.967-3.218-2,0.207,1.068,1.578,2.041Z" style="fill: #231f20"/>
      <path d="M55.775,226.439l1.186-.743,4.772,7.633L60.5,234.1l-2.622-2.139a34.385,34.385,0,0,1-2.743-2.5l-0.017.011c0.437,0.6.971,1.347,1.489,2.1s1.014,1.489,1.4,2.1l0.9,1.435-1.186.743-4.772-7.633,1.228-.771,2.66,2.2a34.411,34.411,0,0,1,2.743,2.5l0.017-.011c-0.475-.666-0.982-1.382-1.474-2.094s-0.976-1.428-1.4-2.11Z" style="fill: #231f20"/>
      <path d="M60.195,228.216c-0.984-2.07-1.622-3.657.375-4.672s2.9,0.436,3.992,2.451l0.582,1.145c1.086,2.14,1.746,3.77-.3,4.812s-2.977-.451-4.063-2.591Zm2.245,1.241c0.337,0.663.93,1.721,1.786,1.285,0.891-.453.34-1.559-0.051-2.329l-1.043-2.054c-0.326-.642-1.021-2.078-1.948-1.606-0.98.5-.188,1.858,0.126,2.479Z" style="fill: #231f20"/>
      <path d="M70.627,224.426c0.461,0.786.95,1.832,1.466,2.868l0.019-.008c-0.061-.208-0.13-0.413-0.191-0.621-0.236-.733-0.462-1.471-0.651-2.222l-1.282-4.774,1.35-.533,2.014,8.888-1.564.618-1.826-3.1c-0.488-.827-0.888-1.7-1.333-2.559l-0.019.007c0.26,0.931.566,1.843,0.775,2.78l0.84,3.49-1.564.617-4.638-7.852,1.35-.533,2.39,4.337c0.375,0.679.713,1.371,1.042,2.067,0.1,0.193.187,0.392,0.275,0.589l0.019-.008c-0.321-1.112-.679-2.211-0.879-3.1l-1.078-4.584,1.08-.427Z" style="fill: #231f20"/>
      <path d="M75.371,227.353l-2.632-8.605,1.339-.41,2.246,7.344,2.487-.762,0.386,1.262Z" style="fill: #231f20"/>
      <path d="M79.985,225.975l-2.174-8.731,3.824-.956,0.319,1.28-2.465.616,0.548,2.2,2.271-.567,0.319,1.28-2.271.568,0.669,2.689,2.465-.616,0.319,1.28Z" style="fill: #231f20"/>
      <path d="M84.691,224.821l-1.717-8.835,2.865-.557a1.69,1.69,0,0,1,1.617.725,7.425,7.425,0,0,1,.995,2.973c0.339,1.744.73,3.758-.245,4.767a1.772,1.772,0,0,1-.975.435Zm1.72-1.679c1.227-.238,1.154-1.031.657-3.588-0.405-2.085-.742-2.875-1.566-2.715l-0.9.176,1.213,6.243Z" style="fill: #231f20"/>
      <path d="M89.56,218.588c-0.261-2.278-.351-3.987,1.867-4.3a2.093,2.093,0,0,1,2.6,1.6,6.66,6.66,0,0,1,.222,1.072l-1.386.194c-0.147-.9-0.3-1.607-1.245-1.522-1.089.152-.78,1.7-0.683,2.387l0.349,2.473c0.1,0.736.323,1.931,1.274,1.8,0.792-.111.907-1.157,0.688-2.5l-0.96.135L92.1,218.62l2.307-.324,0.677,4.791-1.04.146L93.9,222.21l-0.02,0a1.483,1.483,0,0,1-1.133,1.42c-2.277.319-2.671-1.4-3.007-3.773Z" style="fill: #231f20"/>
      <path d="M96.187,222.966L95.317,214l3.92-.379,0.127,1.314-2.527.244,0.219,2.258,2.328-.225,0.127,1.314-2.328.225,0.268,2.76,2.527-.244,0.127,1.314Z" style="fill: #231f20"/>
    </g>
    <g>
      <path d="M143.693,218.415l1.789-9h1.889l1.7,9h-1.5l-0.37-2.278h-1.639l-0.37,2.278h-1.5Zm2.089-3.6h1.2l-0.379-2.555c-0.07-.42-0.1-0.828-0.14-1.248-0.01-.2-0.03-0.407-0.05-0.6h-0.02c-0.02.192-.04,0.4-0.05,0.6-0.04.42-.07,0.828-0.14,1.248Z" style="fill: #231f20"/>
      <path d="M153.249,209.42h1.4v9H153.19l-1.089-3.2a34.6,34.6,0,0,1-1-3.574h-0.02c0.05,0.744.109,1.655,0.149,2.566s0.07,1.8.07,2.519v1.691h-1.4v-9h1.449l1.09,3.274a34.548,34.548,0,0,1,1,3.574h0.021c-0.051-.815-0.1-1.691-0.141-2.555s-0.07-1.728-.07-2.531V209.42Z" style="fill: #231f20"/>
      <path d="M155.887,218.415v-9H158.8a1.688,1.688,0,0,1,1.449,1.02,7.4,7.4,0,0,1,.41,3.106c0,1.774,0,3.826-1.149,4.629a1.77,1.77,0,0,1-1.039.24h-2.589ZM157.9,217.1c1.249,0,1.329-.792,1.329-3.395,0-2.122-.18-2.962-1.02-2.962h-0.919V217.1H157.9Z" style="fill: #231f20"/>
    </g>
    <g>
      <path d="M199.246,213.264l4.66,0.32-0.091,1.317-1.627-.111-0.527,7.666-1.4-.1,0.527-7.666-1.637-.112Z" style="fill: #231f20"/>
      <path d="M204.042,222.636l0.984-8.949,1.391,0.152-0.391,3.544,1.947,0.212,0.39-3.544,1.391,0.151-0.983,8.95L207.379,223l0.45-4.093-1.946-.212-0.45,4.093Z" style="fill: #231f20"/>
      <path d="M210.6,218.131c0.412-2.255.822-3.916,3.037-3.57s2.1,2.052,1.808,4.325l-0.2,1.269c-0.369,2.372-.787,4.079-3.062,3.725s-2.152-2.108-1.783-4.479Zm1.1,2.32c-0.114.735-.251,1.94,0.7,2.089,0.988,0.153,1.188-1.066,1.321-1.92l0.354-2.276c0.111-.711.387-2.283-0.642-2.443-1.088-.17-1.241,1.4-1.348,2.085Z" style="fill: #231f20"/>
      <path d="M217.8,220.706l-0.784,3.795-1.371-.282,1.819-8.812,2.6,0.533a1.887,1.887,0,0,1,1.649,2.544c-0.2.964-.613,1.932-1.565,1.9l0,0.023a1.365,1.365,0,0,1,.728,1.815c-0.075.364-.561,2.518-0.28,2.845l-0.034.164-1.509-.31a10.846,10.846,0,0,1,.313-2.263c0.1-.543.265-1.28-0.171-1.542a3.611,3.611,0,0,0-1.142-.357Zm0.267-1.293,1.078,0.222c0.458,0.058.883-.223,1.064-1.1,0.2-.987-0.1-1.222-0.621-1.341l-1.02-.209Z" style="fill: #231f20"/>
      <path d="M222.574,220.346c0.641-2.2,1.219-3.813,3.386-3.246s1.879,2.254,1.354,4.487l-0.327,1.242c-0.61,2.322-1.2,3.979-3.426,3.4s-1.925-2.316-1.314-4.639Zm0.853,2.42c-0.189.72-.449,1.905,0.479,2.148,0.968,0.253,1.292-.94,1.512-1.776L226,220.908c0.183-.7.617-2.233-0.389-2.5-1.063-.278-1.377,1.266-1.554,1.939Z" style="fill: #231f20"/>
      <path d="M232.94,219.424l1.331,0.438-1.956,5.961c-0.62,1.893-1.429,2.624-3.168,2.051-1.759-.578-1.978-1.647-1.356-3.54l1.955-5.961,1.331,0.438-1.91,5.825c-0.27.82-.491,1.656,0.412,1.954,0.865,0.284,1.182-.521,1.451-1.342Z" style="fill: #231f20"/>
      <path d="M234.324,223.888c0.918-2.1,1.7-3.625,3.772-2.78a2.091,2.091,0,0,1,1.445,2.688,6.585,6.585,0,0,1-.347,1.039l-1.3-.528c0.324-.853.549-1.539-0.312-1.941-1.02-.415-1.527,1.076-1.789,1.722l-0.939,2.313c-0.28.689-.69,1.832,0.2,2.194,0.74,0.3,1.365-.546,1.848-1.814l-0.9-.365,0.5-1.224,2.158,0.878-1.82,4.482-0.973-.4,0.389-.957-0.019-.007a1.483,1.483,0,0,1-1.692.659c-2.13-.867-1.609-2.548-0.706-4.772Z" style="fill: #231f20"/>
      <path d="M237.8,230.977l4.028-8.045,1.252,0.626-1.6,3.186,1.753,0.877,1.595-3.187,1.252,0.626-4.028,8.046-1.252-.626,1.843-3.68-1.753-.876-1.843,3.679Z" style="fill: #231f20"/>
      <path d="M250.527,227.691l1.191,0.734L247,236.094l-1.243-.767,0.751-3.3a34.465,34.465,0,0,1,1.021-3.571l-0.017-.011c-0.348.66-.774,1.469-1.218,2.267s-0.884,1.57-1.261,2.184l-0.887,1.441-1.191-.735,4.715-7.667,1.234,0.761-0.788,3.363a34.5,34.5,0,0,1-1.021,3.571l0.017,0.011c0.385-.722.8-1.494,1.22-2.251s0.846-1.509,1.267-2.194Z" style="fill: #231f20"/>
      <path d="M247.824,236.669l5.391-7.21,3.156,2.356-0.791,1.058-2.035-1.52-1.357,1.817,1.874,1.4-0.79,1.058-1.875-1.4-1.66,2.221,2.035,1.519-0.791,1.058Z" style="fill: #231f20"/>
      <path d="M257.955,236.847c0.549-.588,1.037-1.215.467-1.732a0.709,0.709,0,0,0-1.135.1,1.472,1.472,0,0,0-.271,1.488,13.339,13.339,0,0,1,.266,2.236,2.609,2.609,0,0,1-.8,1.818c-1.146,1.261-2.438,1.285-3.453.363-1.243-1.13-.928-2.368.153-3.559l0.444-.488,1.036,0.941-0.355.392c-0.611.628-.877,1.246-0.366,1.711a0.866,0.866,0,0,0,1.354-.2,1.438,1.438,0,0,0,.385-1.256,11.533,11.533,0,0,1-.239-3.023,2.861,2.861,0,0,1,.662-1.264c1.033-1.137,2.131-1.273,3.227-.278,1.65,1.5.217,2.988-.373,3.652Z" style="fill: #231f20"/>
      <path d="M262.1,241.158c0.608-.524,1.162-1.095.652-1.671a0.71,0.71,0,0,0-1.14-.021,1.473,1.473,0,0,0-.432,1.45,13.311,13.311,0,0,1,.021,2.251,2.609,2.609,0,0,1-.994,1.72c-1.276,1.129-2.563,1.014-3.471-.013-1.112-1.259-.665-2.456.539-3.521l0.494-.437,0.927,1.049-0.395.35c-0.677.558-1.007,1.144-.55,1.661a0.865,0.865,0,0,0,1.367-.048,1.441,1.441,0,0,0,.519-1.207,11.541,11.541,0,0,1,.091-3.031,2.868,2.868,0,0,1,.8-1.184c1.15-1.018,2.256-1.034,3.236.074,1.477,1.671-.109,2.993-0.768,3.589Z" style="fill: #231f20"/>
    </g>
  </g>
  <g>
    <path d="M150.334,186.555c0,4.693,4.023,4.693,4.023,0l2.011-92.52c0-5.363-8.045-5.363-8.045,0l2.011,90.509v2.011Z" style="fill: #fff;stroke: #231f20"/>
    <path d="M155.027,177.839c4.693,2.682,2.011,10.057-2.011,10.057A24.492,24.492,0,0,0,155.027,177.839Zm0.67-26.817c6.7,6.034,2.682,14.75-2.011,17.431-4.023,2.011-4.023,4.693-4.023,10.057-6.034-6.7-2.682-12.738,2.682-16.09C155.7,159.738,155.7,155.715,155.7,151.022Zm0.67-20.113c0,7.375-11.4,9.386-11.4,14.75,0,2.011.67,6.034,4.023,8.045,0-7.375,6.034-8.045,10.057-12.068,4.693-4.693,4.693-12.738-2.682-18.772v8.045Zm-8.045-4.023c-6.7-5.363-9.386-14.75-6.7-20.783,1.149-3.831,5.364-5.692,8.765-5.582a8.973,8.973,0,0,1,2.619,1.1c1.953,0.843,4.937,2.311,4.937,3.875,0,2.234-4.529,1.822-7.312,1.875-3.313.063-7.625,0.188-4.317,7.445l2.011,3.352v8.716Z" style="fill: #fff;stroke: #231f20"/>
    <path d="M151.675,104.091" style="fill: #231f20"/>
  </g>
</svg>
